<?xml version="1.0" encoding="UTF-8" standalone="no"?>
<svg
   xmlns:dc="http://purl.org/dc/elements/1.1/"
   xmlns:cc="http://creativecommons.org/ns#"
   xmlns:rdf="http://www.w3.org/1999/02/22-rdf-syntax-ns#"
   xmlns:svg="http://www.w3.org/2000/svg"
   xmlns="http://www.w3.org/2000/svg"
   height="1964.0983"
   width="1697.9241"
   xml:space="preserve"
   enable-background="new 0 0 3883.356 2428.236"
   viewBox="0 0 1697.9241 1964.0982"
   y="0px"
   x="0px"
   id="Layer_1"
   version="1.1"><metadata
   id="metadata4824"><rdf:RDF><cc:Work
       rdf:about=""><dc:format>image/svg+xml</dc:format><dc:type
         rdf:resource="http://purl.org/dc/dcmitype/StillImage" /><dc:title></dc:title></cc:Work></rdf:RDF></metadata><defs
   id="defs4822" />












































































































<g
   transform="matrix(1.3683619,0,0,1.299196,-785.52741,-679.41676)"
   id="g4832"><path
     d="m 656.06113,1430.5917 h 985.11907 c 46.4095,0 73.6634,9.6928 81.7534,29.0783 v 29.0782 c -31.1441,210.0411 -179.8369,545.9833 -212.7521,545.9833 H 826.18156 C 556.68686,1735.1583 574.29943,1494.7822 574.29943,1488.7482 V 1459.67 c 8.09825,-19.3855 35.34387,-29.0783 81.7617,-29.0783 z m 510.77027,-298.5035 c 24.2865,0 79.0512,14.6484 164.3191,43.9383 110.1512,0 100.3703,43.8324 100.3703,72.3681 133.2854,31.0168 199.9365,79.6922 199.9365,146.0198 h -17.8046 c -33.4622,-49.9656 -63.9488,-81.6242 -91.4679,-94.9758 -41.0135,-14.635 -74.4676,-21.9657 -100.3703,-21.9657 94.4355,39.6376 143.2736,68.9209 146.5145,87.8698 5.9349,9.0444 8.9023,16.1502 8.9023,21.3241 l -18.6169,7.7542 c -38.3195,-48.6689 -74.7492,-73.0099 -109.2808,-73.0099 0,14.4564 8.9023,39.8031 8.9023,73.0099 h -17.8045 c -10.2535,0 -22.3967,-34.0206 -36.4298,-102.0882 -24.8252,-29.2899 -46.136,-43.9382 -63.9488,-43.9382 68.9222,87.0627 63.9488,123.4584 63.9488,146.0198 h -27.5191 c 0,-48.6689 -30.4949,-99.7129 -91.468,-153.1322 -12.9556,4.7439 -40.2095,9.6927 -81.7535,14.86 100.0388,72.077 91.4681,108.4992 91.4681,138.2656 H 1267.21 c -15.6578,-87.4399 -70.4226,-131.1598 -164.3192,-131.1598 v -7.1058 c -121.41576,19.3855 -182.132,65.4806 -182.132,138.2656 h -27.51914 c 22.66191,-102.0882 80.40235,-153.1323 173.22144,-153.1323 44.2461,-24.1227 74.741,-36.184 91.4679,-36.184 v -7.1058 c -78.1891,0 -201.45331,-13.4706 -282.50216,152.4838 0,29.2966 -6.20838,43.9383 -18.61687,43.9383 -11.87799,0 -17.80455,-4.949 -17.80455,-14.8601 0,-74.5183 60.70786,-139.9857 182.13198,-196.422 55.5771,-9.9044 89.0393,-14.86 100.3703,-14.86 l 90.664,14.86 c 11.8696,-4.7372 21.0455,-7.1058 27.5191,-7.1058 v -7.7542 c -54.5078,-9.4678 -93.8967,-14.2116 -118.1831,-14.2116 -171.60509,0 -274.95109,82.4909 -310.02143,247.4594 H 802.584 l -18.61687,-7.1057 c 0,-13.7817 9.16752,-47.8154 27.51914,-102.0882 -19.96795,0 -41.27871,34.0338 -63.94885,102.0882 h -27.51915 c 0,-47.1207 21.0621,-99.0116 136.79999,-160.238 v -7.1058 h -17.80455 c -97.67639,44.8049 -146.51457,100.5796 -146.51457,167.3438 -11.14858,0 -26.71513,1.6606 -26.71513,-14.8601 0,-95.194 87.95351,-160.6614 263.88541,-196.422 87.67168,-59.4333 133.18598,-51.0375 237.16198,-51.0375 z m -72.8512,145.3714 c 103.0725,16.3751 154.6046,55.3513 154.6046,116.9482 l -17.8046,7.1057 -55.0466,-80.1156 -54.2342,-14.8601 c -30.7601,42.6415 -46.1361,71.9447 -46.1361,87.87 h -26.7151 c 0,-33.2862 19.8271,-62.2718 45.332,-94.9758 h -8.9022 c -42.6381,12.9215 -63.9489,44.5801 -63.9489,94.9758 h -27.51915 v -36.8259 h -8.90224 l -8.90234,36.8259 h -27.51914 c 14.41438,-74.4391 54.24257,-116.9482 145.69397,-116.9482 z m 45.3238,-36.1774 h 27.5191 c 123.4465,-31.0036 150.0373,-24.2021 228.268,-7.1058 v -21.9658 c -58.9424,-10.3477 -179.2641,-35.8731 -255.7871,29.0716 z"
     id="path4699"
     style="stroke-width:7.40547657" /><path
     d="m 948.2945,593.42646 c 8.6288,0 17.531,8.88452 26.7152,26.62148 v 194.20051 c 0,11.49054 -5.9432,17.22374 -17.8046,17.22374 -12.4831,0 -33.7773,3.97718 -36.4298,-43.85324 -75.4206,0 -72.8511,6.37472 -72.8511,-35.24139 3.1084,-23.0773 14.8869,-18.0096 72.8511,-18.0096 v -52.46517 c -11.5215,0 -1.9063,-1.30701 -55.0465,8.61189 -11.878,-19.30859 -17.8046,-33.92635 -17.8046,-43.85328 46.9484,-8.32322 80.4023,-26.08424 100.3703,-53.23494 z m 90.664,-17.22378 c 8.2889,0 27.5191,-1.09052 27.5191,17.22378 v 264.67526 c 0,12.01973 -5.9431,18.00958 -17.8045,18.00958 -33.769,0 -27.5192,-0.44098 -27.5192,-88.48434 -31.7298,0 -27.5191,-15.57998 -27.5191,-35.24139 0,-12.00372 9.1675,-18.00959 27.5191,-18.00959 v -52.46517 c -32.9484,0 -27.5191,-15.91675 -27.5191,-44.63107 z m 110.0848,0 c 11.8698,1.56362 17.8046,7.32091 17.8046,17.22378 v 238.0538 c 0,8.8845 -9.1759,17.75294 -27.5191,26.62146 -10.8005,0 -25.9029,-26.3569 -45.332,-79.08665 v -35.24138 l 17.8046,-26.62149 v -35.24139 l -17.8046,-26.62148 v -26.62148 c 28.5055,-61.55817 33.4043,-52.46517 55.0465,-52.46517 z m -27.5191,290.51091 17.8046,9.39771 18.6168,-9.39771 8.9023,18.00959 c 0,71.10822 -15.2101,110.44712 100.3703,211.42432 5.9348,10.4481 8.9022,22.1952 8.9022,35.2414 -11.878,27.1506 -24.0129,42.025 -36.4296,44.631 -36.7697,0 -29.0195,-9.8948 -17.8046,-70.4747 -114.5775,-49.6988 -110.0848,-156.3772 -110.0848,-220.82202 z m 109.2725,-290.51091 c 12.0106,0 36.4298,-2.95081 36.4298,17.22378 v 212.21009 c 0,30.27793 -9.1759,47.76631 -27.5192,52.46517 -13.4943,0 -25.6376,-20.61562 -36.4297,-61.86287 -22.0153,0 -17.8045,-15.7644 -17.8045,-52.46516 0,-12.00372 8.9022,-18.0096 26.7151,-18.0096 v -61.86287 c -32.8074,0 -26.7151,-14.67389 -26.7151,-52.46517 -0.01,-8.33925 15.1023,-20.08639 45.3236,-35.23337 z m 565.8169,-53.25098 c 20.5067,33.38911 17.8045,49.33794 17.8045,79.08665 0,22.45185 -173.2214,40.20485 -519.6725,53.25098 l -8.9023,-18.00959 v -35.23337 c 0,-13.04613 170.254,-39.41102 510.7703,-79.09467 z m 0,194.2005 c 22.9354,3.02299 17.8045,14.73804 17.8045,70.47476 0,23.30983 -13.6684,18.00959 -91.4679,18.00959 -93.3662,0 -236.0928,-3.13523 -428.2046,-9.3977 l -8.9023,-17.22378 c 0,-61.99918 -47.9098,-61.86287 510.7703,-61.86287 z"
     id="path4701"
     style="stroke-width:8.15258789" /></g>


























































</svg>