<?xml version="1.0" encoding="utf-8"?>
<!-- Svg Vector Icons : http://www.onlinewebfonts.com/icon -->
<!DOCTYPE svg PUBLIC "-//W3C//DTD SVG 1.1//EN" "http://www.w3.org/Graphics/SVG/1.1/DTD/svg11.dtd">
<svg version="1.1" xmlns="http://www.w3.org/2000/svg" xmlns:xlink="http://www.w3.org/1999/xlink" x="0px" y="0px" viewBox="0 0 1000 1000" enable-background="new 0 0 1000 1000" xml:space="preserve">
<metadata> Svg Vector Icons : http://www.onlinewebfonts.com/icon </metadata>
<g><g transform="translate(0.000000,511.000000) scale(0.100000,-0.100000)"><path d="M5284.2,3868.7c-585.4-39.8-1202.6-185.2-1678.5-394.2C2900.9,3163.8,2204,2598.4,1983,2160.3c-157.3-316.6-169.2-593.3-41.8-1101.1c147.3-595.3,8-766.6-907.9-1109C593.2-213.1,392.1-316.6,266.7-438C89.5-611.3,97.5-569.5,101.4-1381.8l6-716.8L230.9-2226c446-452,1222.5-874.1,2056.8-1119c1192.7-348.4,2761.6-416.1,3902.5-169.2C7793-3167.8,9139-2303.7,9658.6-1290.2c83.7,165.3,161.3,374.3,207.1,563.5c33.8,143.4,47.8,1682.5,17.9,1975.2c-57.7,559.5-252.9,979.6-635.2,1359.9C8402.3,3450.5,6759.6,3972.2,5284.2,3868.7z M6512.7,3408.7c1140.9-179.2,2164.3-677,2618.3-1278.3c734.7-969.7,280.7-2411.2-1059.2-3364.9c-764.6-543.6-1758.1-888-2936.8-1019.4c-366.4-39.8-1578.9-33.8-1911.4,10c-800.4,105.5-1415.7,270.8-1891.5,505.7c-459.9,229-802.4,577.4-840.2,856.2c-8,57.7,0,87.6,33.9,131.4c53.8,67.7,324.5,199.1,686.9,332.5c517.7,191.2,746.7,320.6,947.8,531.6c127.4,133.4,207.1,284.7,238.9,454c27.9,153.3,13.9,290.7-63.7,591.4c-77.7,298.7-87.6,545.6-31.9,706.8c79.6,225,296.7,483.8,607.3,720.8c625.2,475.9,1296.2,746.7,2100.6,848.2C5344,3476.4,6166.3,3462.5,6512.7,3408.7z"/><path d="M5553,2914.9c-505.7-39.8-915.9-117.5-1334-254.9c-686.9-227-1132.9-503.7-1290.2-798.4c-35.8-65.7-43.8-113.5-43.8-258.8c2-161.3,10-199.1,77.6-368.3c127.4-318.6,119.5-643.1-25.9-945.8c-169.2-358.4-440-547.6-1107-772.5c-364.4-123.4-467.9-171.2-525.6-244.9c-83.6-105.5-27.9-262.8,155.3-432.1c667-617.2,2895-840.2,4591.4-461.9c1557,348.4,2682,1304.2,2817.4,2389.3c47.8,382.3-57.7,790.5-294.7,1138.9c-322.5,473.9-1109,846.2-2054.8,969.7C6283.7,2907,5732.2,2928.9,5553,2914.9z M6544.6,2287.7c91.6-41.8,101.6-93.6,55.8-276.8c-123.4-487.8-49.8-854.2,225-1125c209.1-205.1,563.5-354.4,941.8-398.2c111.5-11.9,125.5-17.9,143.4-69.7c49.8-145.3-91.6-298.7-274.8-298.7c-111.5,0-155.3,21.9-280.7,137.4c-149.3,139.4-430.1,326.5-571.5,380.3c-73.7,29.9-163.3,45.8-244.9,47.8c-109.5,2-151.3-8-278.8-69.7c-165.3-79.6-406.2-264.8-543.6-416.1c-49.8-55.7-123.4-113.5-165.3-131.4c-133.4-55.7-296.7-4-358.4,113.5c-39.8,77.7-35.8,121.5,17.9,195.1c35.9,53.8,77.7,75.7,223,123.5c398.2,131.4,708.8,330.5,788.5,505.7c73.7,157.3,25.9,754.6-71.7,947.8c-63.7,123.4,8,246.9,193.1,326.5C6423.1,2313.6,6480.9,2317.6,6544.6,2287.7z"/></g></g>
</svg>